<svg width="1400" height="900" viewBox="0 0 1400 900" fill="none" xmlns="http://www.w3.org/2000/svg">
  <title>TimeAura Logo Option D - Ribbon</title>
  <defs>
    <linearGradient id="bgD" x1="170" y1="84" x2="1188" y2="822" gradientUnits="userSpaceOnUse">
      <stop stop-color="#F8FAFB"/>
      <stop offset="1" stop-color="#E7EDF5"/>
    </linearGradient>
    <linearGradient id="ribbonD" x1="487" y1="304" x2="760" y2="544" gradientUnits="userSpaceOnUse">
      <stop stop-color="#8DB8EA"/>
      <stop offset="1" stop-color="#426EAC"/>
    </linearGradient>
    <filter id="shadowD" x="394" y="177" width="466" height="466" filterUnits="userSpaceOnUse" color-interpolation-filters="sRGB">
      <feFlood flood-opacity="0" result="BackgroundImageFix"/>
      <feColorMatrix in="SourceAlpha" type="matrix" values="0 0 0 0 0 0 0 0 0 0 0 0 0 0 0 0 0 0 127 0" result="hardAlpha"/>
      <feOffset dy="20"/>
      <feGaussianBlur stdDeviation="28"/>
      <feColorMatrix type="matrix" values="0 0 0 0 0.164706 0 0 0 0 0.25098 0 0 0 0 0.356863 0 0 0 0.12 0"/>
      <feBlend mode="normal" in2="BackgroundImageFix" result="effect1_dropShadow_1_1"/>
      <feBlend mode="normal" in="SourceGraphic" in2="effect1_dropShadow_1_1" result="shape"/>
    </filter>
  </defs>
  <rect width="1400" height="900" fill="url(#bgD)"/>
  <rect x="82" y="82" width="1236" height="736" rx="36" fill="rgba(255,255,255,0.56)" stroke="rgba(31,41,51,0.08)"/>
  <g filter="url(#shadowD)">
    <rect x="444" y="230" width="366" height="366" rx="84" fill="rgba(255,255,255,0.72)"/>
    <path d="M522 380C522 329 562 294 622 294C673 294 710 321 710 360C710 396 686 419 639 431C590 443 570 458 570 492C570 529 603 552 650 552C694 552 732 531 756 494" stroke="url(#ribbonD)" stroke-width="34" stroke-linecap="round" stroke-linejoin="round"/>
    <path d="M493 333C525 301 570 282 624 282C712 282 776 329 776 397" stroke="rgba(66,110,172,0.20)" stroke-width="10" stroke-linecap="round"/>
    <circle cx="757" cy="493" r="16" fill="#E6A666"/>
  </g>
  <text x="700" y="686" text-anchor="middle" fill="#223244" font-family="SF Pro Display, PingFang SC, Helvetica Neue, Arial, sans-serif" font-size="78" font-weight="650" letter-spacing="-0.04em">TimeAura</text>
  <text x="700" y="744" text-anchor="middle" fill="#6F8193" font-family="SF Pro Text, PingFang SC, Helvetica Neue, Arial, sans-serif" font-size="30" font-weight="500">让每个重要时刻如约而至</text>
  <text x="700" y="144" text-anchor="middle" fill="#7B8D9F" font-family="SF Pro Text, PingFang SC, Helvetica Neue, Arial, sans-serif" font-size="22" font-weight="600" letter-spacing="0.08em">OPTION D / AURA RIBBON</text>
</svg>
